<?xml version="1.0" encoding="UTF-8" standalone="no"?>
<!DOCTYPE svg PUBLIC "-//W3C//DTD SVG 1.1//EN" "http://www.w3.org/Graphics/SVG/1.1/DTD/svg11.dtd">
<svg version="1.1" xmlns="http://www.w3.org/2000/svg" xmlns:xlink="http://www.w3.org/1999/xlink" preserveAspectRatio="xMidYMid meet" viewBox="0 0 128 128" width="128" height="128"><defs><path d="M14.25 48L113.75 46.63L113.75 132L14.39 132L14.25 48Z" id="ayVJXcg3X"></path><path d="M76.01 39.4C86.87 39.4 93.66 39.4 96.37 39.4C99.11 39.4 101.32 41.62 101.32 44.35C101.32 45.37 101.32 47.92 101.32 52L23.31 52C23.31 48.18 23.31 45.8 23.31 44.84C23.31 41.84 25.75 39.4 28.76 39.4C31.34 39.4 37.79 39.4 48.11 39.4C52.48 34.32 55.22 31.14 56.31 29.87C59.57 26.09 65.46 26.2 68.57 30.1C69.56 31.34 72.04 34.44 76.01 39.4Z" id="ccZm444R"></path><path d="M102.38 63.94L26.59 63.94" id="a9F3oS0M2"></path><path d="M102.38 79.68L26.59 79.68" id="a79t7bSXV"></path><path d="M102.38 95.95L26.59 95.95" id="aLcTTWUSn"></path><path d="M66.8 36C66.8 38.68 64.63 40.85 61.95 40.85C59.28 40.85 57.11 38.68 57.11 36C57.11 33.32 59.28 31.15 61.95 31.15C64.63 31.15 66.8 33.32 66.8 36Z" id="d1fBLYQDtx"></path></defs><g><g><g><use xlink:href="#ayVJXcg3X" opacity="1" fill="#ffffff" fill-opacity="1"></use><g><use xlink:href="#ayVJXcg3X" opacity="1" fill-opacity="0" stroke="#000000" stroke-width="5" stroke-opacity="1"></use></g></g><g><use xlink:href="#ccZm444R" opacity="1" fill="#ecc301" fill-opacity="1"></use></g><g><g><use xlink:href="#a9F3oS0M2" opacity="1" fill-opacity="0" stroke="#000000" stroke-width="5" stroke-opacity="1"></use></g></g><g><g><use xlink:href="#a79t7bSXV" opacity="1" fill-opacity="0" stroke="#000000" stroke-width="5" stroke-opacity="1"></use></g></g><g><g><use xlink:href="#aLcTTWUSn" opacity="1" fill-opacity="0" stroke="#000000" stroke-width="5" stroke-opacity="1"></use></g></g><g><use xlink:href="#d1fBLYQDtx" opacity="1" fill="#000000" fill-opacity="1"></use></g></g></g></svg>