<?xml version="1.0" encoding="UTF-8" standalone="no"?>
<!DOCTYPE svg PUBLIC "-//W3C//DTD SVG 1.1//EN" "http://www.w3.org/Graphics/SVG/1.1/DTD/svg11.dtd">
<svg version="1.1" xmlns="http://www.w3.org/2000/svg" xmlns:xlink="http://www.w3.org/1999/xlink" preserveAspectRatio="xMidYMid meet" viewBox="0 0 128 128" width="128" height="128"><defs><path d="M49.52 39.14C49.52 47.5 42.9 54.29 34.76 54.29C26.61 54.29 20 47.5 20 39.14C20 30.79 26.61 24 34.76 24C42.9 24 49.52 30.79 49.52 39.14Z" id="e1xkNrSlQn"></path><path d="" id="b1nCxdtOS"></path><path d="M0.11 128L128.11 127.68L128.03 94.09C115.46 72.77 107.61 59.45 104.46 54.12C101.21 48.6 93.15 48.82 90.2 54.51C85.77 63.07 81.48 71.34 77.61 78.82C72.69 88.32 60.25 90.85 52.01 84.01C43.6 77.03 36.26 73.56 29.98 73.62C18.26 73.73 8.26 77.19 0 84L0.11 128Z" id="aj3jOIMi7"></path></defs><g><g><g><use xlink:href="#e1xkNrSlQn" opacity="1" fill="#fbf085" fill-opacity="1"></use></g><g><g><use xlink:href="#b1nCxdtOS" opacity="1" fill-opacity="0" stroke="#000000" stroke-width="1" stroke-opacity="1"></use></g></g><g><use xlink:href="#aj3jOIMi7" opacity="1" fill="#71cc5e" fill-opacity="1"></use></g></g></g></svg>